<svg width="175" height="42" viewBox="0 0 175 42" fill="none" xmlns="http://www.w3.org/2000/svg" role="img" aria-labelledby="title">
  <title id="title">Nirooh</title>
  <path d="M4 33V9H9.3L22.4 24.7V9H28.5V33H23.2L10.1 17.4V33H4Z" fill="#1A1C1C"/>
  <path d="M36.2 33V15.2H42.1V33H36.2ZM36 10.2C36 8.35 37.4 7 39.15 7C40.95 7 42.35 8.35 42.35 10.2C42.35 12 40.95 13.35 39.15 13.35C37.4 13.35 36 12 36 10.2Z" fill="#1A1C1C"/>
  <path d="M49.7 33V15.2H55.35V18.15C56.42 16.1 58.2 15 60.55 15H61.8V20.65H59.7C56.95 20.65 55.6 22.05 55.6 24.85V33H49.7Z" fill="#1A1C1C"/>
  <path d="M73.9 33.45C68.35 33.45 64.35 29.55 64.35 24.1C64.35 18.65 68.35 14.75 73.9 14.75C79.45 14.75 83.45 18.65 83.45 24.1C83.45 29.55 79.45 33.45 73.9 33.45ZM73.9 28.25C76.15 28.25 77.65 26.55 77.65 24.1C77.65 21.65 76.15 19.95 73.9 19.95C71.65 19.95 70.15 21.65 70.15 24.1C70.15 26.55 71.65 28.25 73.9 28.25Z" fill="#F58220"/>
  <path d="M96.25 33.45C90.7 33.45 86.7 29.55 86.7 24.1C86.7 18.65 90.7 14.75 96.25 14.75C101.8 14.75 105.8 18.65 105.8 24.1C105.8 29.55 101.8 33.45 96.25 33.45ZM96.25 28.25C98.5 28.25 100 26.55 100 24.1C100 21.65 98.5 19.95 96.25 19.95C94 19.95 92.5 21.65 92.5 24.1C92.5 26.55 94 28.25 96.25 28.25Z" fill="#F58220"/>
  <path d="M111.65 33V7.8H117.55V17.25C118.75 15.65 120.55 14.75 122.95 14.75C127.2 14.75 129.8 17.65 129.8 22.2V33H123.9V23.1C123.9 21.05 122.8 19.85 120.95 19.85C118.9 19.85 117.55 21.3 117.55 23.65V33H111.65Z" fill="#1A1C1C"/>
  <path d="M139 33V9H144.3L157.4 24.7V9H163.5V33H158.2L145.1 17.4V33H139Z" fill="#1A1C1C" opacity=".18"/>
</svg>
